<?xml version="1.0" standalone="no"?>
<!DOCTYPE svg PUBLIC "-//W3C//DTD SVG 20010904//EN"
 "http://www.w3.org/TR/2001/REC-SVG-20010904/DTD/svg10.dtd">
<svg version="1.0" xmlns="http://www.w3.org/2000/svg"
 width="500.000000pt" height="500.000000pt" viewBox="0 0 500.000000 500.000000"
 preserveAspectRatio="xMidYMid meet">
<metadata>
Created by potrace 1.14, written by Peter Selinger 2001-2017
</metadata>
<g transform="translate(0.000000,500.000000) scale(0.100000,-0.100000)"
fill="#000000" stroke="none">
<path d="M2470 4061 c-159 -36 -281 -91 -417 -188 -186 -133 -400 -407 -530
-680 -58 -122 -115 -300 -149 -464 -26 -125 -28 -150 -28 -379 0 -265 11 -372
60 -569 102 -409 330 -713 647 -861 157 -73 274 -103 484 -121 278 -25 502 32
735 187 283 188 516 530 623 913 25 88 27 103 15 131 -18 43 -110 91 -110 57
0 -28 -122 -258 -198 -372 -213 -324 -452 -533 -691 -605 -137 -42 -362 -15
-514 61 -368 185 -573 608 -602 1244 -5 117 -3 172 9 250 50 301 228 612 465
809 152 126 287 186 420 186 121 0 226 -71 286 -195 52 -105 67 -194 72 -412
l5 -201 37 5 c261 38 421 168 421 343 0 319 -292 704 -643 848 -85 35 -270 41
-397 13z"/>
</g>
</svg>
